<?xml version="1.0" standalone="no"?>
<!DOCTYPE svg PUBLIC "-//W3C//DTD SVG 20010904//EN"
 "http://www.w3.org/TR/2001/REC-SVG-20010904/DTD/svg10.dtd">
<svg version="1.0" xmlns="http://www.w3.org/2000/svg"
 width="512.000000pt" height="512.000000pt" viewBox="0 0 512.000000 512.000000"
 preserveAspectRatio="xMidYMid meet">

<g transform="translate(0.000000,512.000000) scale(0.100000,-0.100000)"
fill="#DDDFE1" stroke="none">
<path d="M1825 4054 c-296 -45 -515 -153 -711 -348 -211 -211 -326 -463 -352
-770 l-7 -88 -72 -18 c-314 -80 -569 -331 -655 -646 -30 -112 -31 -335 0 -445
88 -321 335 -564 664 -652 l83 -22 1785 0 c1671 0 1789 1 1854 18 335 86 590
331 678 653 17 64 21 106 21 224 0 118 -4 160 -21 224 -88 319 -352 576 -672
650 -34 8 -64 16 -66 19 -2 2 -13 39 -24 83 -79 311 -327 559 -645 645 -65 18
-107 22 -225 22 -168 0 -245 -16 -387 -83 -75 -35 -88 -38 -96 -25 -4 8 -35
51 -68 94 -165 219 -415 380 -689 442 -83 19 -327 33 -395 23z m360 -324 c184
-47 348 -152 465 -297 75 -93 116 -168 176 -320 26 -68 51 -123 56 -123 4 0
59 49 122 109 87 83 131 117 187 145 134 66 275 82 413 46 113 -29 190 -73
276 -160 128 -128 180 -261 180 -462 l0 -108 108 0 c200 0 351 -59 477 -185
329 -329 168 -878 -291 -995 -75 -20 -118 -20 -1794 -20 -1676 0 -1719 0
-1794 20 -331 84 -528 404 -446 725 55 213 224 378 446 435 57 15 111 20 206
20 128 0 128 0 123 23 -21 97 -37 263 -31 337 28 413 327 747 739 826 98 19
279 11 382 -16z"/>
</g>
</svg>
